<svg width="1600" height="1200" xmlns="http://www.w3.org/2000/svg" class="bi bi-cart2">

 <g>
  <title>background</title>
  <rect fill="none" id="canvas_background" height="1202" width="1602" y="-1" x="-1"/>
 </g>
 <g>
  <title>Layer 1</title>
  <path fill="#ffffff" id="svg_1" d="m87.08187,50.37223a0.5,0.5 0 0 1 0.5,-0.5l1.5,0a0.5,0.5 0 0 1 0.485,0.379l0.405,1.621l11.61,0a0.5,0.5 0 0 1 0.485,0.621l-1.5,6a0.5,0.5 0 0 1 -0.485,0.379l-9,0a0.5,0.5 0 0 1 -0.485,-0.379l-1.905,-7.621l-1.11,0a0.5,0.5 0 0 1 -0.5,-0.5zm3.14,2.5l1.25,5l8.22,0l1.25,-5l-10.72,0zm1.86,8a1,1 0 1 0 0,2a1,1 0 0 0 0,-2zm-2,1a2,2 0 1 1 4,0a2,2 0 0 1 -4,0zm9,-1a1,1 0 1 0 0,2a1,1 0 0 0 0,-2zm-2,1a2,2 0 1 1 4,0a2,2 0 0 1 -4,0z" fill-rule="evenodd"/>
 </g>
</svg>