<svg width="512" height="512" viewBox="0 0 512 512" fill="none" xmlns="http://www.w3.org/2000/svg">
<g clip-path="url(#clip0)">
<path d="M501.089 137.465L411.443 47.8191C398.398 34.772 378.149 33.25 363.298 44.2001L314.871 79.9063C313.113 81.2023 312.008 83.2014 311.844 85.3794C311.68 87.5574 312.475 89.6984 314.019 91.2434L325.69 102.914L274.42 154.183H237.577L186.304 102.911L197.977 91.2374C199.522 89.6924 200.315 87.5514 200.152 85.3734C199.988 83.1954 198.882 81.1963 197.124 79.9003L148.699 44.2021C133.854 33.249 113.606 34.771 100.555 47.8231L86.3597 62.0192C83.4317 64.9472 83.4317 69.6953 86.3597 72.6233C89.2877 75.5513 94.0357 75.5513 96.9638 72.6233L111.16 58.4272C118.925 50.6621 130.967 49.7551 139.799 56.2712L155.911 68.1492L31.2362 192.823L19.3582 176.716C12.8471 167.873 13.7531 155.823 21.5122 148.064L75.7586 93.8184C78.6866 90.8904 78.6866 86.1434 75.7586 83.2144C72.8316 80.2863 68.0835 80.2863 65.1545 83.2144L10.9081 137.46C-2.13302 150.501 -3.65803 170.75 7.28606 185.611L42.9973 234.039C44.2933 235.797 46.2924 236.902 48.4704 237.066C48.6584 237.08 48.8454 237.087 49.0324 237.087C51.0124 237.087 52.9224 236.302 54.3344 234.891L66.0055 223.218L74.7126 231.926C56.3164 247.763 45.5534 270.88 45.5534 295.363C45.5534 335.566 74.2466 369.898 113.174 377.502C117.407 399.934 133.384 418.262 154.459 425.822V452.755C154.459 465.072 164.475 475.092 176.787 475.092C186.474 475.092 194.739 468.892 197.827 460.253H208.562C211.649 468.892 219.908 475.092 229.591 475.092C239.278 475.092 247.542 468.892 250.63 460.253H261.368C264.455 468.89 272.717 475.089 282.402 475.089C292.087 475.089 300.348 468.89 303.435 460.253H314.174C317.261 468.89 325.524 475.089 335.208 475.089C347.522 475.089 357.54 465.071 357.54 452.757V393.809C369.3 392.185 379.87 386.803 388.002 378.912C402.991 377.972 417.394 373.032 429.832 364.538C433.252 362.202 434.131 357.537 431.795 354.117C429.461 350.697 424.794 349.817 421.375 352.153C414.787 356.653 407.525 359.927 399.898 361.897C402.305 356.493 403.857 350.632 404.385 344.479C423.747 335.969 436.427 316.852 436.427 295.364C436.427 278.718 428.782 263.31 415.983 253.228L426.647 242.564C442.278 255.576 451.448 274.889 451.448 295.362C451.448 308.764 447.568 321.757 440.23 332.937C437.958 336.399 438.922 341.047 442.384 343.32C443.653 344.153 445.081 344.55 446.493 344.55C448.934 344.55 451.328 343.359 452.768 341.166C461.715 327.535 466.444 311.696 466.444 295.363C466.444 270.875 455.68 247.76 437.282 231.931L445.994 223.218L457.666 234.89C459.077 236.301 460.987 237.086 462.967 237.086C463.154 237.086 463.341 237.079 463.529 237.065C465.707 236.901 467.706 235.796 469.002 234.038L504.708 185.612C515.658 170.759 514.136 150.511 501.089 137.465V137.465ZM380.198 206.719C380.198 204.837 380.931 203.067 382.262 201.736L403.388 180.61L413.353 190.575L392.227 211.701C390.896 213.032 389.127 213.765 387.245 213.765C385.363 213.765 383.593 213.032 382.262 211.701C380.931 210.371 380.198 208.601 380.198 206.719V206.719ZM361.636 138.859L368.298 145.521L347.172 166.647C345.841 167.978 344.072 168.711 342.189 168.711C340.307 168.711 338.538 167.978 337.206 166.647C334.459 163.9 334.459 159.429 337.206 156.682L358.332 135.556L361.636 138.859ZM336.295 113.518L347.729 124.952L326.603 146.078C318.008 154.672 318.008 168.656 326.603 177.25C330.766 181.413 336.302 183.706 342.189 183.706C348.077 183.706 353.612 181.413 357.775 177.25L378.901 156.124L392.784 170.007L371.658 191.133C367.495 195.296 365.202 200.832 365.202 206.719C365.202 212.606 367.495 218.142 371.658 222.305C375.821 226.468 381.356 228.762 387.244 228.762C393.132 228.762 398.667 226.468 402.83 222.305L423.956 201.179L435.39 212.613L387.227 260.778L288.13 161.682L336.295 113.518ZM304.733 394.341H312.875V445.257H304.733V394.341ZM253.264 379.345L295.53 337.851C295.508 338.491 295.481 339.131 295.481 339.776C295.481 355.342 302.044 369.396 312.535 379.345H253.264ZM199.125 425.21C201.94 424.113 204.658 422.826 207.264 421.357V445.257H199.125V425.21ZM251.929 394.341H260.07V445.257H251.929V394.341ZM239.626 371.719C239.817 369.712 239.924 367.681 239.924 365.625C239.924 330.37 211.242 301.688 175.987 301.688C174.606 301.688 173.239 301.747 171.879 301.834L213.683 260.957C215.247 282.943 233.622 300.357 255.999 300.357C279.399 300.357 298.436 281.32 298.436 257.92C298.436 256.918 298.389 255.928 298.32 254.944L341.327 285.921C329.779 287.783 319.429 293.274 311.501 301.194L311.51 301.148L239.626 371.719ZM106.718 263.932L118.195 275.409L132.253 319.049C127.856 323.181 124.041 327.921 120.948 333.142C103.572 329.284 90.5607 313.541 90.5607 295.364C90.5617 282.772 96.6378 271.156 106.718 263.932V263.932ZM255.999 230.479C271.13 230.479 283.44 242.789 283.44 257.92C283.44 273.051 271.13 285.361 255.999 285.361C240.868 285.361 228.558 273.051 228.558 257.92C228.558 242.789 240.868 230.479 255.999 230.479ZM373.171 290.377C373.171 290.377 282.524 224.79 281.468 223.995C274.369 218.652 265.547 215.482 255.999 215.482C244.957 215.482 234.889 219.725 227.332 226.661L144.371 307.758L133.316 273.441L237.578 169.179H274.421L378.682 273.44L373.222 290.399C373.205 290.392 373.188 290.385 373.171 290.377V290.377ZM108.611 180.611L129.737 201.737C131.068 203.068 131.801 204.837 131.801 206.719C131.801 208.601 131.068 210.371 129.737 211.701C128.406 213.032 126.637 213.765 124.754 213.765C122.872 213.765 121.103 213.032 119.772 211.701L98.6458 190.575L108.611 180.611ZM49.8934 218.123L40.2373 205.029L168.118 77.1483L181.209 86.7984L49.8934 218.123ZM88.0427 201.18L109.168 222.305C113.331 226.468 118.866 228.762 124.754 228.762C130.642 228.762 136.177 226.468 140.34 222.305C144.503 218.142 146.796 212.606 146.796 206.719C146.796 200.832 144.503 195.296 140.34 191.133L119.214 170.007L119.388 169.833L133.097 156.124L154.223 177.25C158.386 181.413 163.921 183.706 169.809 183.706C175.697 183.706 181.232 181.413 185.395 177.25C193.99 168.656 193.99 154.672 185.395 146.078L164.269 124.952L175.703 113.518L223.868 161.682L124.771 260.778L76.6086 212.615L88.0427 201.18ZM153.666 135.556L174.792 156.682C177.539 159.429 177.539 163.9 174.792 166.647C173.461 167.978 171.691 168.711 169.809 168.711C167.927 168.711 166.157 167.978 164.826 166.647L143.701 145.521L153.666 135.556ZM60.5495 295.363C60.5495 274.895 69.7175 255.58 85.3467 242.56L96.0128 253.226C83.2117 263.309 75.5646 278.717 75.5646 295.363C75.5646 308.822 80.5876 321.705 89.7087 331.639C96.5528 339.093 105.244 344.395 114.804 347.069C113.363 351.81 112.46 356.782 112.165 361.915C82.2096 354.232 60.5495 327.014 60.5495 295.363V295.363ZM127.047 365.625C127.047 338.639 149.002 316.684 175.987 316.684C202.973 316.684 224.928 338.638 224.928 365.625C224.928 392.611 202.973 414.565 175.987 414.565C149.002 414.565 127.047 392.611 127.047 365.625ZM176.787 460.096C172.745 460.096 169.455 456.803 169.455 452.755V429.23C171.603 429.449 173.781 429.561 175.986 429.561C178.746 429.561 181.459 429.366 184.128 429.025V452.755C184.128 456.803 180.835 460.096 176.787 460.096V460.096ZM229.591 460.096C225.549 460.096 222.26 456.803 222.26 452.755V409.782L236.933 395.377V452.754C236.933 456.803 233.64 460.096 229.591 460.096ZM282.402 460.093C278.357 460.093 275.066 456.802 275.066 452.757V394.341H289.737V452.757C289.737 456.802 286.447 460.093 282.402 460.093ZM335.208 460.093C331.163 460.093 327.873 456.802 327.873 452.757V394.341H342.544V452.757C342.544 456.802 339.253 460.093 335.208 460.093ZM350.042 379.341C328.227 379.341 310.477 361.593 310.477 339.776C310.477 317.961 328.226 300.212 350.042 300.212C371.857 300.212 389.606 317.96 389.606 339.776C389.606 361.593 371.857 379.341 350.042 379.341ZM421.431 295.364C421.431 308.914 414.434 321.159 403.334 328.118C400.826 316.645 394.701 306.513 386.213 298.98L393.801 275.411L405.278 263.934C415.356 271.155 421.431 282.771 421.431 295.364V295.364ZM462.105 218.12L330.788 86.8034L343.881 77.1493L471.759 205.027L462.105 218.12ZM492.638 176.71L480.759 192.82L356.087 68.1482L372.197 56.2692C381.033 49.7541 393.078 50.6601 400.839 58.4222L490.485 148.068C498.247 155.83 499.152 167.876 492.638 176.71V176.71Z" fill="#7A7F8D"/>
<path d="M198.618 365.625C198.618 353.146 188.466 342.994 175.987 342.994C163.508 342.994 153.356 353.146 153.356 365.625C153.356 378.104 163.508 388.256 175.987 388.256C188.466 388.256 198.618 378.104 198.618 365.625V365.625ZM168.352 365.625C168.352 361.415 171.777 357.99 175.987 357.99C180.197 357.99 183.622 361.415 183.622 365.625C183.622 369.835 180.197 373.26 175.987 373.26C171.777 373.26 168.352 369.835 168.352 365.625Z" fill="#7A7F8D"/>
<path d="M350.042 317.145C337.563 317.145 327.411 327.297 327.411 339.776C327.411 352.255 337.563 362.407 350.042 362.407C362.521 362.407 372.673 352.255 372.673 339.776C372.673 327.297 362.521 317.145 350.042 317.145V317.145ZM350.042 347.411C345.832 347.411 342.407 343.986 342.407 339.776C342.407 335.566 345.832 332.141 350.042 332.141C354.252 332.141 357.677 335.566 357.677 339.776C357.677 343.986 354.252 347.411 350.042 347.411Z" fill="#7A7F8D"/>
</g>
<defs>
<clipPath id="clip0">
<rect width="512" height="512" fill="white"/>
</clipPath>
</defs>
</svg>
