<svg width="512" height="512" viewBox="0 0 512 512" fill="none" xmlns="http://www.w3.org/2000/svg">
<g clip-path="url(#clip0)">
<path d="M378.218 413.59C374.131 417.305 373.833 423.627 377.548 427.714C379.521 429.884 382.23 430.985 384.95 430.985C387.351 430.985 389.761 430.126 391.677 428.383C395.764 424.668 396.065 418.343 392.35 414.257C388.635 410.17 382.309 409.868 378.224 413.584L378.218 413.59Z" fill="#7A7F8D"/>
<path d="M347.678 256.94L368.89 278.153C372.66 281.923 377.682 283.999 383.032 283.999C388.382 283.999 393.405 281.923 397.173 278.153L503.237 172.09C508.887 166.439 512 158.905 512 150.878C512 142.849 508.888 135.315 503.237 129.664L418.386 44.8128C406.689 33.1161 387.658 33.1191 375.96 44.8128L269.897 150.877C262.1 158.674 262.1 171.362 269.898 179.16L291.111 200.372C293.699 202.96 297.352 203.821 300.659 202.979L256.005 245.625L211.349 202.977C212.154 203.183 212.984 203.301 213.828 203.301C216.48 203.301 219.024 202.247 220.899 200.372L242.112 179.16C249.909 171.362 249.91 158.674 242.112 150.876L136.049 44.8128C130.399 39.1629 122.865 36.051 114.837 36.051C106.808 36.051 99.2739 39.1619 93.624 44.8128L8.77181 129.663C-2.92394 141.36 -2.92394 160.391 8.77181 172.089L114.836 278.152C118.734 282.05 123.856 284 128.977 284C134.098 284 139.22 282.051 143.119 278.152L164.331 256.939C166.206 255.064 167.26 252.52 167.26 249.868C167.26 249.023 167.142 248.193 166.936 247.389L208.542 290.954L129.867 366.089C114.864 365.329 99.6059 370.663 88.1721 382.098C77.7833 392.485 72.0635 406.297 72.0635 420.989C72.0635 435.678 77.7843 449.491 88.1721 459.879C98.8959 470.603 112.977 475.962 127.062 475.962C141.145 475.962 155.231 470.6 165.951 459.879C176.34 449.491 182.06 435.68 182.06 420.989C182.06 420.041 182.034 419.096 181.987 418.156L256.005 340.652L330.022 418.155C329.975 419.095 329.949 420.04 329.949 420.988C329.949 435.678 335.67 449.49 346.058 459.878C356.779 470.6 370.863 475.961 384.948 475.961C399.031 475.961 413.115 470.6 423.837 459.878C434.225 449.49 439.946 435.678 439.946 420.988C439.946 406.297 434.225 392.485 423.837 382.097C412.403 370.663 397.145 365.33 382.143 366.089L303.468 290.954L345.073 247.389C344.867 248.193 344.749 249.023 344.749 249.868C344.749 252.521 345.803 255.065 347.678 256.94V256.94ZM368.89 80.1681L467.883 179.16L453.74 193.303L354.748 94.3108L368.89 80.1681ZM404.245 58.9545L489.095 143.806C490.968 145.679 492 148.19 492 150.876C492 153.561 490.968 156.073 489.095 157.946L482.025 165.017L383.032 66.0254L390.103 58.9545C394.002 55.0576 400.345 55.0556 404.245 58.9545ZM284.04 165.018L340.606 108.452L439.598 207.444L383.032 264.01L368.353 249.331C383.013 229.187 380.836 205.247 361.819 186.23C342.801 167.212 318.862 165.033 298.717 179.696L284.04 165.018ZM22.9145 143.806L107.766 58.9545C109.639 57.0816 112.15 56.0506 114.837 56.0506C117.523 56.0506 120.034 57.0816 121.907 58.9545L128.978 66.0254L29.9864 165.017L22.9155 157.946C19.0156 154.048 19.0156 147.704 22.9145 143.806V143.806ZM128.978 264.01L72.4124 207.445L90.0921 189.766C93.997 185.861 93.997 179.529 90.0921 175.623C86.1872 171.719 79.8553 171.719 75.9494 175.623L58.2697 193.303L44.1271 179.16L143.119 80.1681L157.262 94.3118L139.587 111.986C135.681 115.891 135.681 122.223 139.587 126.129C141.54 128.081 144.099 129.058 146.658 129.058C149.217 129.058 151.777 128.081 153.729 126.129L171.404 108.453L227.969 165.018L213.289 179.699C205.26 173.858 196.488 170.585 187.509 170.135C174.277 169.478 161.382 175.038 150.19 186.232C131.173 205.248 128.996 229.189 143.656 249.333L128.978 264.01ZM151.81 445.735C138.164 459.382 115.96 459.382 102.314 445.735C95.7039 439.125 92.063 430.337 92.063 420.988C92.063 411.638 95.7039 402.849 102.314 396.239C109.137 389.416 118.099 386.005 127.061 386.005C136.024 386.005 144.986 389.416 151.81 396.239C158.421 402.849 162.061 411.639 162.061 420.988C162.061 430.337 158.421 439.125 151.81 445.735ZM175.87 395.603C173.305 390.686 169.985 386.131 165.952 382.098C161.873 378.018 157.304 374.719 152.436 372.192L222.355 305.417L242.179 326.174L175.87 395.603ZM419.946 420.987C419.946 430.337 416.305 439.125 409.695 445.735C396.05 459.382 373.846 459.382 360.199 445.735C353.589 439.125 349.948 430.337 349.948 420.988C349.948 411.639 353.589 402.849 360.199 396.239C373.846 382.594 396.05 382.594 409.696 396.239C416.306 402.85 419.946 411.639 419.946 420.987ZM346.058 382.098C342.024 386.131 338.704 390.686 336.139 395.603L157.715 208.776C159.301 206.047 161.466 203.239 164.332 200.373C167.096 197.61 169.901 195.406 172.734 193.754L359.575 372.192C354.706 374.719 350.137 378.018 346.058 382.098V382.098ZM270.483 259.452L339.275 193.755C342.004 195.341 344.812 197.507 347.679 200.373C350.544 203.239 352.71 206.048 354.296 208.776L289.007 277.142L270.483 259.452Z" fill="#7A7F8D"/>
<path d="M119.988 413.913C116.083 417.818 116.083 424.15 119.988 428.056L119.993 428.061C121.945 430.013 124.503 430.989 127.061 430.989C129.62 430.989 132.18 430.011 134.133 428.058C138.038 424.153 138.036 417.819 134.131 413.913C130.226 410.009 123.894 410.009 119.988 413.913V413.913Z" fill="#7A7F8D"/>
<path d="M114.845 140.877H114.838C109.315 140.877 104.842 145.355 104.842 150.877C104.842 156.399 109.322 160.877 114.845 160.877C120.368 160.877 124.845 156.399 124.845 150.877C124.845 145.355 120.368 140.877 114.845 140.877Z" fill="#7A7F8D"/>
</g>
<defs>
<clipPath id="clip0">
<rect width="512" height="512" fill="white"/>
</clipPath>
</defs>
</svg>
