<svg width="16" height="16" xmlns="http://www.w3.org/2000/svg" class="bi bi-search">

 <g>
  <title>background</title>
  <rect fill="none" id="canvas_background" height="18" width="18" y="-1" x="-1"/>
 </g>
 <g>
  <title>Layer 1</title>
  <path fill="#7a7f8d" id="svg_1" d="m10.442,10.442a1,1 0 0 1 1.415,0l3.85,3.85a1,1 0 0 1 -1.414,1.415l-3.85,-3.85a1,1 0 0 1 0,-1.415l-0.001,0z" fill-rule="evenodd"/>
  <path fill="#7a7f8d" id="svg_2" d="m6.5,12a5.5,5.5 0 1 0 0,-11a5.5,5.5 0 0 0 0,11zm6.5,-5.5a6.5,6.5 0 1 1 -13,0a6.5,6.5 0 0 1 13,0z" fill-rule="evenodd"/>
 </g>
</svg>