<svg width="271" height="271" viewBox="0 0 271 271" fill="none" xmlns="http://www.w3.org/2000/svg">
<g clip-path="url(#clip0)">
<path d="M270.962 211.467C270.941 210.878 270.921 210.286 270.9 209.692C270.879 209.099 270.857 208.503 270.835 207.904L270.818 207.457L270.809 207.232L270.807 207.176L270.801 206.674L270.799 206.65L270.792 206.557L270.735 205.814C270.658 204.821 270.58 203.825 270.503 202.828L270.444 202.073L270.355 201.095C270.293 200.444 270.232 199.794 270.171 199.145C270.107 198.497 270.043 197.85 269.98 197.205C269.947 196.883 269.915 196.562 269.882 196.241C269.843 195.944 269.803 195.648 269.764 195.351C269.439 193 269.149 190.689 268.735 188.468C268.539 187.357 268.358 186.264 268.155 185.199C267.934 184.136 267.717 183.097 267.506 182.085C267.106 180.061 266.604 178.17 266.18 176.421C266.072 175.985 265.966 175.557 265.862 175.14C265.747 174.724 265.634 174.319 265.524 173.924C265.301 173.135 265.09 172.386 264.891 171.683C264.688 170.981 264.509 170.322 264.323 169.718C264.131 169.116 263.954 168.562 263.795 168.062C263.558 167.328 263.359 166.71 263.202 166.221C262.969 165.5 262.207 165.094 261.478 165.302L215.661 178.358C214.963 178.557 214.53 179.253 214.663 179.966C214.713 180.233 214.77 180.538 214.833 180.88C214.898 181.223 214.971 181.604 215.049 182.019C215.124 182.434 215.182 182.89 215.257 183.371C215.331 183.853 215.409 184.366 215.492 184.907C215.532 185.177 215.579 185.452 215.617 185.737C215.649 186.022 215.682 186.314 215.717 186.612C215.844 187.806 216.035 189.086 216.12 190.458C216.176 191.14 216.234 191.842 216.293 192.558C216.338 193.276 216.36 194.012 216.398 194.757C216.498 196.244 216.479 197.792 216.507 199.354L216.514 199.935L216.493 200.45C216.482 200.793 216.47 201.137 216.458 201.482C216.449 201.825 216.44 202.17 216.43 202.514L216.419 203.03L216.388 203.772C216.346 204.771 216.303 205.77 216.26 206.765L216.228 207.51L216.224 207.603L216.223 207.626C216.224 207.738 216.215 206.738 216.218 207.17L216.214 207.207L216.2 207.354L216.173 207.648C216.138 208.04 216.102 208.429 216.067 208.818C216.033 209.206 215.999 209.593 215.966 209.977C215.92 210.36 215.875 210.741 215.829 211.119C215.732 211.875 215.672 212.624 215.552 213.353C215.446 214.083 215.342 214.8 215.241 215.503C215.119 216.2 215.001 216.883 214.885 217.547C214.781 218.212 214.641 218.852 214.517 219.471C214.387 220.09 214.283 220.69 214.148 221.26C214.017 221.83 213.891 222.376 213.771 222.895C213.711 223.151 213.654 223.4 213.598 223.644C213.54 223.852 213.485 224.054 213.43 224.25C213.398 224.37 213.368 224.482 213.337 224.598H269.373C270.124 224.598 270.75 224.009 270.779 223.258C270.779 223.254 270.779 223.249 270.779 223.245C270.826 222.201 270.874 221.13 270.923 220.034C270.943 218.94 270.965 217.822 270.987 216.685C271.019 215.549 270.984 214.394 270.981 213.227C270.974 212.644 270.968 212.057 270.962 211.467Z" fill="#7A7F8D"/>
<path d="M256.391 152.652C257.143 152.35 257.486 151.479 257.139 150.747C256.985 150.421 256.805 150.041 256.601 149.61C256.409 149.206 256.196 148.758 255.965 148.27C255.666 147.661 255.342 147.002 254.996 146.297C254.648 145.596 254.277 144.849 253.886 144.063C253.687 143.654 253.493 143.316 253.289 142.932C253.085 142.557 252.878 142.173 252.665 141.781C252.238 140.998 251.801 140.179 251.333 139.341C250.848 138.512 250.348 137.655 249.834 136.773C249.576 136.334 249.314 135.888 249.05 135.437C248.773 134.993 248.492 134.544 248.209 134.09C247.639 133.185 247.057 132.261 246.465 131.321C245.217 129.481 243.974 127.557 242.587 125.684C242.246 125.213 241.903 124.739 241.56 124.265L241.044 123.553L240.507 122.853C239.788 121.923 239.066 120.989 238.344 120.054C237.61 119.131 236.85 118.227 236.105 117.32C235.728 116.869 235.364 116.412 234.979 115.971C234.594 115.532 234.21 115.094 233.827 114.658C233.444 114.224 233.062 113.79 232.683 113.359C232.305 112.926 231.925 112.501 231.532 112.09C230.755 111.262 229.988 110.445 229.233 109.641C228.477 108.839 227.694 108.086 226.949 107.333C226.199 106.584 225.47 105.848 224.726 105.165C223.989 104.475 223.273 103.805 222.58 103.156C221.89 102.506 221.186 101.916 220.53 101.331C219.868 100.752 219.234 100.198 218.631 99.671C218.013 99.1613 217.426 98.678 216.875 98.2239C216.323 97.7715 215.807 97.3481 215.33 96.9567C214.852 96.5668 214.394 96.2288 213.991 95.9135C213.404 95.4631 212.909 95.0826 212.515 94.7802C211.914 94.3192 211.058 94.4176 210.575 95.0016L185.985 124.768C185.521 125.329 185.561 126.149 186.078 126.662C186.284 126.865 186.521 127.1 186.788 127.364C187.044 127.621 187.337 127.893 187.638 128.211C187.938 128.529 188.263 128.872 188.61 129.239C188.958 129.604 189.328 129.993 189.717 130.403C190.093 130.825 190.488 131.271 190.9 131.735C191.307 132.203 191.752 132.668 192.175 133.187C192.602 133.7 193.044 134.231 193.498 134.777C193.96 135.312 194.402 135.894 194.859 136.482C195.311 137.073 195.794 137.657 196.248 138.282C196.703 138.906 197.164 139.54 197.632 140.181C197.87 140.497 198.097 140.827 198.319 141.161C198.545 141.493 198.771 141.826 198.999 142.161C199.226 142.494 199.455 142.829 199.684 143.165C199.913 143.501 200.123 143.853 200.344 144.197C200.778 144.89 201.228 145.574 201.655 146.272C202.071 146.978 202.487 147.684 202.901 148.386L203.212 148.91L203.503 149.446C203.698 149.801 203.892 150.156 204.085 150.509C204.882 151.904 205.555 153.342 206.259 154.693C206.582 155.385 206.899 156.066 207.209 156.733C207.364 157.065 207.518 157.394 207.669 157.718C207.81 158.048 207.949 158.374 208.086 158.696C208.361 159.337 208.628 159.961 208.888 160.564C209.127 161.175 209.358 161.766 209.58 162.332C209.691 162.615 209.8 162.892 209.906 163.163C210.006 163.427 210.131 163.713 210.197 163.933C210.356 164.395 210.505 164.833 210.646 165.245C210.79 165.654 210.925 166.037 211.049 166.391C211.213 166.879 211.363 167.326 211.498 167.731C211.649 168.183 211.782 168.582 211.896 168.924C212.153 169.692 213.003 170.084 213.755 169.782L256.391 152.652Z" fill="#7A7F8D"/>
<path d="M131.166 99.4847C131.539 99.5355 131.95 99.5917 132.399 99.6531C132.846 99.7307 133.328 99.8148 133.844 99.9047C134.358 99.9931 134.906 100.087 135.483 100.186C135.985 100.27 136.504 100.39 137.044 100.503L152.564 68.7588C151.794 68.6387 151.031 68.5195 150.283 68.4028C149.771 68.3267 149.267 68.2391 148.764 68.1763C148.262 68.1156 147.766 68.0554 147.276 67.996C146.298 67.8799 145.346 67.7667 144.426 67.6574C143.504 67.5784 142.612 67.502 141.757 67.4287C140.901 67.363 140.085 67.2766 139.304 67.2395C138.524 67.2013 137.784 67.1648 137.089 67.1306C136.394 67.0978 135.744 67.0672 135.144 67.0387C134.543 67.029 133.99 67.0202 133.491 67.0122C132.79 67.0036 132.194 66.9965 131.717 66.9908C130.959 66.9817 130.332 67.5736 130.296 68.3301L128.881 97.8767C128.846 98.6047 129.371 99.2386 130.093 99.3376C130.401 99.3798 130.759 99.4291 131.166 99.4847Z" fill="#7A7F8D"/>
<path d="M172.877 115.754C173.294 116.057 173.689 116.345 174.061 116.616C174.433 116.882 174.781 117.131 175.103 117.362C175.242 117.458 175.473 117.633 175.661 117.772C175.854 117.917 176.039 118.055 176.214 118.185C176.596 118.47 176.933 118.722 177.222 118.937C177.871 119.422 178.792 119.258 179.237 118.581L199.499 87.7165C199.944 87.0393 199.728 86.1285 199.025 85.7254C198.713 85.5463 198.348 85.3369 197.935 85.0998C197.745 84.9909 197.545 84.8765 197.335 84.7561C197.107 84.6269 196.868 84.4916 196.619 84.3507C196.043 84.0329 195.419 83.6898 194.753 83.3226C194.087 82.9595 193.377 82.5733 192.63 82.1656C191.917 81.8087 191.169 81.4336 190.388 81.042C189.603 80.6591 188.803 80.2332 187.944 79.8467C187.09 79.4553 186.207 79.0505 185.299 78.6343C184.397 78.2087 183.446 77.8222 182.48 77.4166C181.51 77.0195 180.534 76.5853 179.515 76.2022C179.257 76.1044 178.995 76.0054 178.734 75.9067L169.993 113.846C170.477 114.15 170.932 114.471 171.38 114.762C171.902 115.108 172.402 115.439 172.877 115.754Z" fill="#7A7F8D"/>
<path d="M103.959 99.3301C104.351 99.2785 104.735 99.2146 105.119 99.1741C105.502 99.1353 105.881 99.0968 106.255 99.0586C107.001 98.9813 107.727 98.906 108.429 98.8329C109.133 98.7859 109.813 98.7402 110.466 98.6963C110.792 98.674 111.111 98.6524 111.422 98.631C111.733 98.6101 112.045 98.5836 112.312 98.5833C112.862 98.5688 113.384 98.5554 113.875 98.5425C114.364 98.5271 114.821 98.5126 115.244 98.4992C115.766 98.4957 116.245 98.4926 116.678 98.4898C117.154 98.4872 117.575 98.4849 117.935 98.4829C118.745 98.4786 119.382 97.7926 119.329 96.9841L117.505 69.1511C117.451 68.3426 116.731 67.7456 115.927 67.8471C115.57 67.8922 115.152 67.945 114.68 68.0046C114.242 68.0602 113.756 68.1221 113.228 68.1895C112.604 68.2822 111.929 68.382 111.208 68.489C110.488 68.5985 109.723 68.7152 108.916 68.8381C108.503 68.8963 108.122 68.9736 107.723 69.049C107.325 69.1248 106.918 69.2027 106.503 69.282C105.673 69.4423 104.809 69.6095 103.914 69.7824C103.026 69.9846 102.107 70.194 101.163 70.4088C100.692 70.5169 100.215 70.6267 99.7315 70.738C99.2488 70.851 98.7647 70.989 98.2738 71.116C97.2939 71.377 96.2935 71.6437 95.2757 71.9147C94.2681 72.2185 93.2438 72.5272 92.2071 72.8398C91.6902 72.9998 91.1679 73.1507 90.6487 73.3216C90.1318 73.4982 89.6112 73.6753 89.0892 73.8536C88.568 74.0322 88.0449 74.2114 87.5203 74.3914C86.9954 74.5699 86.4696 74.7494 85.951 74.9539C84.9112 75.3507 83.8675 75.7492 82.8237 76.1477C81.7845 76.5545 80.7624 77.0052 79.738 77.4317C79.2274 77.6493 78.7153 77.8593 78.2107 78.0826C77.7095 78.314 77.21 78.5445 76.7122 78.7744C76.2156 79.0043 75.7207 79.2337 75.2286 79.4616C74.7365 79.6892 74.2464 79.9135 73.77 80.1608C72.8138 80.6434 71.8693 81.1204 70.9405 81.5894C70.0114 82.0552 69.126 82.5693 68.2465 83.0425C67.371 83.5246 66.5101 83.9844 65.698 84.4799C64.8813 84.9643 64.0868 85.4359 63.3183 85.8917C62.5475 86.3413 61.8327 86.8268 61.132 87.2655C60.4363 87.7114 59.7696 88.139 59.1355 88.5455C58.5151 88.9714 57.9263 89.3753 57.3731 89.755C56.8214 90.135 56.3051 90.4904 55.8276 90.8193C55.3506 91.1482 54.9287 91.4743 54.5399 91.7561C54.013 92.1452 53.5632 92.4773 53.1992 92.746C52.5913 93.1947 52.4487 94.0422 52.8737 94.6672L64.4311 111.659C64.8425 112.264 65.6466 112.454 66.2836 112.094C66.5771 111.928 66.924 111.732 67.3197 111.509C67.6646 111.319 68.0377 111.093 68.459 110.874C68.8801 110.654 69.3353 110.417 69.8217 110.164C70.3067 109.911 70.823 109.641 71.367 109.356C71.9204 109.091 72.502 108.812 73.1091 108.521C73.719 108.237 74.3377 107.911 75.0049 107.628C75.667 107.337 76.3517 107.037 77.0557 106.728C77.7526 106.407 78.4908 106.126 79.2377 105.827C79.9885 105.536 80.7404 105.207 81.528 104.928C82.3122 104.646 83.1098 104.358 83.9168 104.067C84.317 103.915 84.729 103.787 85.1417 103.655C85.5537 103.522 85.9679 103.389 86.3835 103.255C86.7983 103.121 87.2147 102.987 87.6324 102.851C88.0523 102.724 88.4782 102.61 88.9012 102.488C89.751 102.253 90.5951 101.992 91.4509 101.773C92.3072 101.561 93.1636 101.35 94.0165 101.139C94.4399 101.026 94.8695 100.938 95.2971 100.85C95.7238 100.76 96.1494 100.67 96.5736 100.581C96.9964 100.491 97.4177 100.402 97.8371 100.313C98.2572 100.229 98.6797 100.164 99.0965 100.089C99.93 99.9446 100.753 99.8014 101.563 99.661C102.376 99.5489 103.176 99.4383 103.959 99.3301Z" fill="#7A7F8D"/>
<path d="M25.153 121.299C24.8501 121.728 24.546 122.158 24.2405 122.59C23.9358 123.022 23.63 123.456 23.3231 123.891C23.0176 124.327 22.7317 124.778 22.4345 125.223C21.8485 126.118 21.2489 127.006 20.675 127.911C20.1144 128.823 19.5539 129.736 18.9956 130.645L18.5792 131.325L18.1838 132.017C17.9211 132.477 17.6592 132.936 17.3982 133.393C16.3313 135.205 15.4045 137.058 14.4625 138.817C14.0241 139.714 13.5928 140.597 13.1706 141.46C12.9612 141.892 12.7538 142.319 12.5493 142.741C12.3567 143.168 12.1667 143.59 11.979 144.007C11.6053 144.84 11.2419 145.65 10.8902 146.433C10.5621 147.227 10.2449 147.993 9.94055 148.728C9.64216 149.466 9.34064 150.164 9.08362 150.841C8.83002 151.519 8.58926 152.163 8.36276 152.768C8.1374 153.371 7.92659 153.937 7.73176 154.459C7.55176 154.987 7.38659 155.472 7.23711 155.909C7.04313 156.485 6.87654 156.979 6.74047 157.384C6.49942 158.099 6.86599 158.874 7.57058 159.144L18.3278 163.268C19.0125 163.531 19.7835 163.224 20.0999 162.563C20.2568 162.235 20.4442 161.843 20.6596 161.393C20.8381 161.022 21.0356 160.611 21.2509 160.163C21.4797 159.722 21.727 159.245 21.9915 158.735C22.255 158.227 22.5352 157.686 22.8307 157.115C23.1285 156.546 23.4714 155.963 23.8117 155.347C24.1563 154.734 24.5155 154.095 24.8872 153.434C25.2788 152.786 25.6836 152.115 26.1001 151.425C26.3075 151.081 26.5177 150.732 26.7305 150.379C26.9545 150.032 27.1812 149.682 27.4103 149.327C27.8684 148.619 28.3366 147.897 28.8127 147.162C29.8242 145.73 30.8135 144.221 31.9314 142.767C32.2044 142.399 32.4786 142.03 32.7536 141.66L33.1658 141.105L33.5977 140.562C34.1727 139.837 34.7501 139.111 35.3275 138.384C35.9154 137.667 36.5256 136.967 37.1187 136.262C37.4193 135.912 37.708 135.555 38.0158 135.215C38.3239 134.875 38.6308 134.536 38.9366 134.199C39.2419 133.861 39.5457 133.526 39.848 133.191C40.1476 132.855 40.4499 132.525 40.764 132.209C41.3819 131.569 41.9924 130.937 42.5928 130.315C43.1922 129.694 43.8178 129.118 44.4083 128.535C45.0033 127.957 45.579 127.386 46.1717 126.863C46.7548 126.333 47.3219 125.817 47.8708 125.317C48.4151 124.815 48.9759 124.366 49.4939 123.916C50.0154 123.472 50.5152 123.047 50.9904 122.642C51.4571 122.272 51.8998 121.922 52.3157 121.592C52.7294 121.263 53.1165 120.955 53.4745 120.669C53.6388 120.534 53.8613 120.371 54.0493 120.228C54.2421 120.082 54.4261 119.944 54.6007 119.812C54.9809 119.525 55.3167 119.272 55.6042 119.055C56.2509 118.567 56.3511 117.636 55.825 117.02L43.5773 102.672C43.0513 102.056 42.1165 102.008 41.5331 102.57C41.2738 102.82 40.9706 103.112 40.6277 103.443C40.4702 103.594 40.3042 103.754 40.1302 103.922C39.953 104.094 39.7844 104.25 39.5648 104.475C39.1449 104.898 38.691 105.357 38.2058 105.846C37.7231 106.336 37.2094 106.857 36.6677 107.407C36.1642 107.952 35.6347 108.526 35.0824 109.124C34.537 109.727 33.9488 110.334 33.3797 111C32.8083 111.662 32.2178 112.347 31.6105 113.051C30.9958 113.746 30.401 114.493 29.7891 115.251C29.1818 116.013 28.5417 116.773 27.9309 117.579C27.3219 118.385 26.7029 119.204 26.0764 120.033C25.7581 120.444 25.4537 120.869 25.153 121.299Z" fill="#7A7F8D"/>
<path d="M2.89684 171.606C2.82524 171.959 2.74137 172.372 2.64638 172.838C2.55938 173.267 2.46296 173.741 2.35798 174.258C2.255 174.786 2.1543 175.41 2.04191 176.047C1.93123 176.69 1.8137 177.374 1.6899 178.095C1.62999 178.455 1.56153 178.826 1.50476 179.2C1.45427 179.573 1.40292 179.953 1.35015 180.342C1.14932 181.897 0.884884 183.571 0.732554 185.359C0.644123 186.25 0.553409 187.164 0.460699 188.1C0.384249 189.036 0.333187 189.995 0.267291 190.968C0.113249 192.91 0.0850082 194.926 0.0208242 196.964L0 197.73L0.00370841 198.5C0.00656104 199.013 0.00941366 199.528 0.0122663 200.044C0.0154042 200.56 0.0185421 201.076 0.0213947 201.592L0.0262442 202.368L0.0559115 203.143C0.0978451 204.175 0.139779 205.207 0.181712 206.235L0.213376 207.004L0.223075 207.253L0.236768 207.439L0.264153 207.809C0.300667 208.303 0.336895 208.796 0.373123 209.287C0.409352 209.778 0.44558 210.266 0.481238 210.753C0.530588 211.26 0.579368 211.765 0.628433 212.267C0.677784 212.769 0.726849 213.267 0.775629 213.762C0.800161 214.009 0.824694 214.255 0.849227 214.5C0.87975 214.742 0.910273 214.982 0.940511 215.222C1.06203 216.177 1.18156 217.117 1.29852 218.038C1.43972 218.954 1.57779 219.85 1.71186 220.722C1.83738 221.594 1.99912 222.438 2.14774 223.254C2.16001 223.319 2.17227 223.383 2.18426 223.448C2.30834 224.115 2.88857 224.598 3.56664 224.598H7.35806C8.16764 224.598 8.81005 223.916 8.76241 223.109C8.74957 222.893 8.73645 222.675 8.7219 222.455C8.67455 221.669 8.6175 220.858 8.59924 220.022C8.57185 219.186 8.5439 218.328 8.51509 217.451C8.50967 216.575 8.50425 215.68 8.49883 214.769C8.4974 214.541 8.49597 214.313 8.49455 214.084C8.4994 213.858 8.50453 213.632 8.50967 213.404C8.51965 212.95 8.52964 212.492 8.53991 212.031C8.54989 211.571 8.56016 211.109 8.57043 210.643C8.59325 210.156 8.61579 209.667 8.63889 209.175C8.66171 208.684 8.68482 208.19 8.70764 207.695L8.72504 207.324L8.7336 207.138L8.73474 207.114C8.73474 207.055 8.73588 207.169 8.73645 207.149L8.73987 207.104L8.74701 207.015L8.80463 206.295C8.88108 205.335 8.95781 204.372 9.03484 203.409L9.0936 202.688L9.17661 201.969C9.23195 201.49 9.28701 201.012 9.34206 200.535C9.39683 200.058 9.4516 199.582 9.50609 199.108L9.58739 198.398L9.69265 197.693C9.98134 195.819 10.2267 193.976 10.5861 192.21C10.7547 191.326 10.9056 190.456 11.0787 189.609C11.2673 188.766 11.4516 187.94 11.631 187.137C11.9631 185.528 12.3935 184.032 12.7438 182.645C12.8337 182.299 12.9215 181.96 13.0074 181.629C13.0981 181.303 13.196 180.994 13.2861 180.689C13.4678 180.08 13.6404 179.503 13.8024 178.96C13.9682 178.413 14.1042 177.924 14.2628 177.433C14.4292 176.932 14.5815 176.473 14.7195 176.058C14.8696 175.606 15.0022 175.206 15.1158 174.864C15.3711 174.096 14.9252 173.272 14.1425 173.064L4.6378 170.529C3.85475 170.32 3.0583 170.812 2.89684 171.606Z" fill="#7A7F8D"/>
<path d="M110.487 220.87C113.579 222.382 116.855 223.098 120.08 223.098C128.175 223.098 135.955 218.588 139.75 210.826C140.48 209.331 141.046 207.682 141.414 206.128L163.544 110.075L171.972 73.4953L177.193 50.8349C177.8 48.1977 175.703 46.4011 173.598 46.4011C172.366 46.4011 171.131 47.017 170.435 48.4402L159.811 70.1723L144.137 102.232L100.442 191.608C95.1354 202.462 99.6328 215.564 110.487 220.87ZM120.891 189.938C126.813 189.938 131.614 194.738 131.614 200.661C131.614 206.582 126.813 211.383 120.891 211.383C114.969 211.383 110.169 206.582 110.169 200.661C110.169 194.738 114.969 189.938 120.891 189.938Z" fill="#7A7F8D"/>
</g>
<defs>
<clipPath id="clip0">
<rect width="271" height="271" fill="white"/>
</clipPath>
</defs>
</svg>
